<svg xmlns="http://www.w3.org/2000/svg" version="1.0" width="250pt" height="64pt" viewBox="0 0 250 64" preserveAspectRatio="xMidYMid meet">
    <g transform="translate(0,120) scale(0.013021,-0.013889)" stroke="none">
        <path fill="#ff5841" d="M2425 6418 c-73 -16 -625 -22 -885 -8 -285 15 -273 17 -361 -78 -61 -66 -119 -168 -144 -256 -24 -81 -18 -204 11 -243 32 -43 78 -65 133 -65 88 1 143 42 243 180 63 87 81 102 122 102 18 0 30 -9 43 -32 16 -30 18 -62 17 -313 -2 -288 -17 -559 -35 -646 -15 -70 -46 -102 -119 -124 -72 -22 -100 -51 -100 -104 0 -80 68 -134 211 -166 109 -25 541 -33 661 -12 159 28 238 82 238 165 0 56 -24 87 -96 123 -76 38 -110 74 -121 127 -4 20 -8 236 -8 479 0 433 0 442 21 470 28 38 77 43 110 12 14 -13 41 -52 60 -87 43 -76 96 -137 136 -158 39 -20 148 -20 186 0 42 22 80 70 93 119 39 140 -72 417 -200 498 -38 25 -54 29 -110 28 -37 -1 -84 -5 -106 -11z" />
        <path fill="#ff5841" d="M4259 6445 c-3 -2 -47 -12 -99 -20 -74 -13 -207 -18 -654 -23 -456 -6 -565 -10 -582 -21 -56 -37 -72 -130 -31 -174 12 -13 44 -32 70 -42 55 -20 71 -39 91 -116 41 -160 49 -782 11 -989 -21 -118 -38 -148 -100 -182 -69 -37 -88 -63 -82 -111 5 -39 26 -70 62 -90 14 -9 210 -14 680 -19 363 -4 692 -10 731 -13 69 -6 73 -6 98 22 68 72 153 277 163 394 8 89 -2 133 -39 174 -27 32 -35 35 -82 35 -30 0 -61 -6 -74 -15 -12 -9 -43 -54 -69 -100 -102 -184 -184 -225 -448 -225 -161 0 -208 13 -224 63 -18 56 -32 288 -21 347 15 79 31 93 107 88 94 -6 130 -46 148 -165 10 -62 31 -84 83 -85 57 -1 89 23 118 87 88 191 64 608 -38 679 -32 23 -100 20 -131 -4 -29 -23 -42 -59 -52 -139 -11 -84 -34 -101 -135 -101 -119 0 -120 2 -120 190 0 247 9 255 265 247 216 -6 263 -25 349 -142 56 -76 72 -87 132 -87 83 0 124 51 132 162 6 89 -11 171 -53 257 -46 93 -83 123 -152 123 -27 0 -52 -2 -54 -5z" />
        <path fill="#ff5841" d="M5461 6415 c-126 -28 -267 -88 -371 -158 -114 -78 -245 -228 -308 -352 -63 -126 -77 -194 -77 -370 0 -140 3 -169 23 -235 81 -257 254 -458 487 -566 140 -65 234 -86 400 -91 176 -6 263 10 418 76 51 22 124 48 162 57 89 22 142 69 190 168 65 131 68 231 9 290 -41 40 -89 36 -151 -14 -173 -137 -437 -162 -616 -57 -105 62 -223 238 -258 387 -21 85 -18 254 5 320 26 73 103 151 169 169 80 23 184 10 270 -32 93 -46 142 -94 212 -209 92 -150 118 -169 220 -169 77 0 128 23 178 81 42 49 57 103 57 202 0 134 -49 273 -126 358 -48 53 -88 65 -169 50 l-63 -12 -98 42 c-150 64 -226 80 -373 79 -69 0 -155 -7 -190 -14z" />
        <path fill="#ff5841" d="M6890 6416 c-158 -28 -249 -67 -282 -121 -18 -30 -24 -88 -12 -119 3 -9 29 -29 58 -45 99 -57 99 -57 109 -259 10 -216 2 -701 -13 -797 -15 -88 -26 -106 -95 -145 -68 -39 -85 -62 -85 -118 0 -38 6 -50 38 -82 65 -65 184 -90 434 -90 180 0 282 14 367 51 128 55 145 174 36 249 -64 44 -77 79 -83 222 -6 155 2 203 36 226 37 24 366 32 397 9 18 -14 20 -27 19 -154 -1 -175 -19 -256 -66 -293 -85 -67 -98 -85 -98 -139 0 -71 38 -113 128 -143 58 -18 96 -22 277 -26 380 -7 516 40 518 180 1 55 -3 60 -93 121 -22 15 -46 40 -52 55 -28 65 -18 988 12 1069 8 23 27 41 65 62 69 39 85 63 85 127 0 79 -39 118 -155 152 -34 9 -119 16 -260 19 -382 9 -518 -40 -518 -185 0 -39 4 -49 35 -76 20 -17 48 -39 63 -50 43 -30 57 -78 63 -217 7 -177 17 -169 -221 -169 -135 0 -188 3 -201 13 -25 19 -36 88 -30 187 8 125 23 158 94 208 46 33 62 51 71 81 26 86 -19 154 -123 187 -71 23 -409 29 -518 10z" />
        <path fill="#ff5841" d="M8806 6414 c-108 -26 -156 -73 -156 -151 0 -52 19 -76 98 -122 90 -52 105 -82 128 -251 17 -127 19 -599 4 -751 -14 -129 -30 -162 -106 -214 -64 -44 -81 -78 -70 -139 9 -47 54 -90 124 -118 52 -21 73 -23 242 -23 212 0 276 13 337 69 30 27 36 41 41 84 6 65 -9 89 -82 136 -76 48 -88 83 -94 264 -6 199 15 272 78 272 40 0 84 -36 415 -334 588 -531 543 -496 622 -496 44 0 56 4 81 29 62 63 64 85 72 726 9 698 8 689 115 749 72 39 98 81 92 144 -6 54 -42 95 -106 119 -39 15 -80 18 -276 18 -215 0 -233 -1 -277 -22 -64 -29 -90 -72 -85 -137 5 -53 18 -69 107 -129 56 -38 71 -78 77 -211 9 -181 -18 -236 -95 -197 -38 20 -79 54 -532 455 -138 122 -244 208 -275 222 -47 22 -60 24 -235 23 -124 0 -205 -5 -244 -15z" />
        <path fill="#ff5841" d="M11560 6416 c-382 -80 -651 -336 -724 -689 -21 -98 -21 -285 0 -385 30 -148 108 -300 213 -414 134 -146 324 -244 533 -278 110 -18 341 -8 440 18 288 77 493 234 615 468 68 131 87 214 87 379 -1 122 -5 151 -28 230 -99 327 -331 566 -636 656 -62 18 -106 22 -255 25 -125 2 -200 -1 -245 -10z m206 -396 c97 -55 178 -177 238 -360 48 -147 68 -249 69 -365 2 -85 -2 -108 -21 -150 -28 -61 -47 -82 -94 -106 -58 -30 -132 -25 -196 11 -61 36 -97 82 -159 204 -124 246 -180 540 -125 661 43 94 99 134 187 135 37 0 63 -8 101 -30z" />
        <path fill="#333333" d="M14014 6374 c-155 -26 -242 -72 -264 -140 -25 -76 9 -132 94 -158 59 -18 93 -49 106 -95 13 -49 30 -415 30 -641 0 -204 -12 -278 -55 -340 -33 -48 -74 -70 -128 -70 -34 0 -53 6 -73 23 -29 26 -32 46 -19 139 11 83 -8 142 -65 199 -57 57 -118 79 -219 79 -118 -1 -201 -49 -251 -147 -22 -42 -25 -61 -25 -153 0 -95 3 -111 28 -162 48 -97 106 -152 221 -208 158 -77 244 -95 461 -95 208 0 255 10 400 80 153 74 242 183 286 352 18 68 22 125 29 458 10 431 15 502 38 540 10 14 48 45 87 68 80 49 96 79 76 147 -20 66 -90 100 -260 125 -119 18 -387 18 -497 -1z" />
        <path fill="#333333" d="M15390 6371 c-98 -25 -159 -52 -240 -106 -300 -199 -354 -549 -125 -803 107 -117 219 -183 448 -261 217 -74 257 -99 257 -164 0 -38 -48 -83 -103 -98 -24 -6 -81 -9 -132 -7 -175 9 -264 67 -394 256 -68 99 -98 122 -156 122 -85 0 -110 -44 -103 -185 7 -118 49 -260 103 -342 43 -64 115 -101 266 -137 170 -41 256 -49 442 -43 204 6 284 23 426 93 77 38 110 62 176 128 88 88 125 151 150 258 42 178 -4 351 -126 470 -95 93 -194 141 -443 215 -199 58 -266 104 -266 182 0 78 59 116 168 109 95 -5 172 -45 299 -157 122 -108 130 -112 193 -113 171 -1 211 196 82 402 -40 65 -97 126 -134 146 -34 18 -94 18 -145 0 -37 -13 -48 -12 -154 17 -98 26 -135 31 -264 33 -122 3 -164 0 -225 -15z" />
        <path fill="#39827e" d="M14697 7304 c-59 -31 -87 -74 -87 -134 0 -60 16 -88 72 -130 l47 -34 0 -186 -1 -185 41 -3 41 -3 0 195 c0 183 1 195 19 201 32 10 89 81 96 119 13 66 -22 129 -93 165 -53 27 -76 26 -135 -5z m127 -90 c23 -22 20 -70 -6 -94 -47 -43 -118 -12 -118 53 0 18 5 38 12 45 18 18 94 15 112 -4z" />
        <path fill="#39827e" d="M15195 8199 c-43 -12 -124 -77 -157 -124 -63 -91 -74 -225 -26 -323 41 -81 169 -182 232 -182 21 0 21 -3 21 -467 l0 -468 43 -3 42 -3 0 470 c0 451 1 471 18 471 36 0 142 62 178 103 20 23 48 66 61 95 23 48 25 64 21 149 -2 52 -9 97 -15 101 -5 4 -17 21 -26 38 -23 44 -85 101 -141 129 -42 21 -63 25 -135 24 -48 0 -99 -5 -116 -10z m192 -145 c19 -9 46 -33 61 -52 24 -31 27 -44 27 -111 0 -85 -18 -120 -78 -156 -48 -29 -141 -27 -190 5 -105 69 -100 245 9 307 47 27 121 30 171 7z" />
        <path fill="#39827e" d="M16085 7531 c-70 -29 -117 -121 -97 -189 14 -45 74 -112 102 -112 7 0 10 -99 10 -301 l0 -300 43 3 42 3 0 298 c0 191 4 297 10 297 17 1 62 43 84 80 29 49 27 105 -7 154 -45 64 -124 92 -187 67z m105 -101 c24 -24 26 -77 3 -102 -22 -24 -77 -24 -103 2 -43 43 -11 120 50 120 17 0 39 -9 50 -20z" />
        <path fill="#39827e" d="M17190 7453 c-105 -37 -183 -122 -215 -236 -29 -102 5 -218 90 -302 45 -45 132 -95 168 -95 15 0 17 -13 17 -138 l0 -137 -138 -138 -137 -137 -133 0 -133 0 3 -42 3 -43 140 -3 140 -2 173 171 173 171 -3 149 c-3 134 -1 149 14 149 62 0 186 95 230 177 28 53 52 148 41 166 -4 6 -8 27 -10 46 -7 66 -67 149 -159 221 -23 17 -119 40 -168 40 -28 -1 -71 -8 -96 -17z m188 -152 c69 -35 77 -52 77 -156 0 -86 -2 -96 -25 -120 -53 -58 -160 -73 -234 -32 -82 46 -109 177 -52 252 16 20 42 45 60 56 41 25 124 25 174 0z" />
        <path fill="#39827e" d="M17058 5892 c-27 -11 -88 -72 -88 -88 0 -11 -24 -14 -130 -14 l-130 0 0 -45 0 -45 124 0 123 0 26 -39 c32 -49 104 -86 150 -77 74 15 137 90 137 163 0 100 -120 181 -212 145z m112 -101 c16 -31 12 -82 -7 -97 -10 -7 -35 -14 -55 -14 -40 0 -68 27 -68 65 0 11 7 31 16 43 21 30 98 32 114 3z" />
        <path fill="#39827e" d="M17850 5584 c-14 -3 -34 -9 -45 -14 -11 -5 -36 -16 -56 -25 -76 -34 -169 -161 -169 -230 0 -13 -60 -15 -435 -15 l-435 0 0 -40 c0 -33 4 -41 23 -45 12 -3 207 -5 433 -3 l410 3 12 -48 c35 -148 209 -258 362 -229 73 13 114 33 160 75 45 40 90 101 90 121 0 8 5 18 10 21 6 3 10 48 10 99 0 107 -10 133 -78 214 -70 83 -196 133 -292 116z m150 -179 c50 -32 75 -84 75 -156 -1 -68 -33 -117 -97 -150 -79 -40 -184 -11 -234 65 -46 71 -19 193 53 240 54 36 147 36 203 1z" />
        <path fill="#39827e" d="M17184 4886 c-30 -13 -84 -72 -84 -92 0 -5 -84 -9 -192 -9 l-193 0 -3 -42 -3 -43 195 0 c184 0 195 -1 201 -19 3 -11 22 -34 41 -50 32 -28 41 -31 106 -31 70 0 72 1 109 40 60 63 64 130 12 199 -43 57 -122 76 -189 47z m112 -84 c6 -4 16 -21 22 -39 10 -29 8 -35 -18 -63 -34 -37 -63 -38 -97 -4 -21 21 -24 32 -20 61 4 20 12 40 19 45 16 10 79 10 94 0z" />
    </g>
</svg>
